<?xml version="1.0" encoding="iso-8859-1"?>
<!-- Uploaded to: SVG Repo, www.svgrepo.com, Generator: SVG Repo Mixer Tools -->
<!DOCTYPE svg PUBLIC "-//W3C//DTD SVG 1.1//EN" "http://www.w3.org/Graphics/SVG/1.1/DTD/svg11.dtd">
<svg fill="#000000" height="800px" width="800px" version="1.1" id="Capa_1" xmlns="http://www.w3.org/2000/svg" xmlns:xlink="http://www.w3.org/1999/xlink" 
	 viewBox="0 0 313.296 313.296" xml:space="preserve">
<path d="M311.47,167.989l-25.581-47.032c-3.02-5.549-8.418-9.186-14.439-9.728c-6.027-0.546-11.982,2.071-15.943,6.99
	l-33.583,41.692c-5.196,6.452-4.18,15.895,2.272,21.091c6.452,5.198,15.894,4.178,21.091-2.272l1.014-1.258
	c-4.151,53.187-48.756,95.196-102.991,95.196C86.344,272.668,40,226.324,40,169.36c0-51.942,38.534-95.046,88.516-102.245
	l-1.409,0.926c-6.924,4.549-8.849,13.849-4.3,20.773c2.881,4.386,7.668,6.765,12.55,6.765c2.826,0,5.685-0.797,8.223-2.465
	l44.743-29.396c5.28-3.469,8.457-9.15,8.498-15.197c0.041-6.046-3.059-11.77-8.29-15.31L144.194,3.206
	c-6.859-4.643-16.188-2.846-20.83,4.015c-4.341,6.415-3.049,14.984,2.746,19.866C55.169,35.611,0,96.16,0,169.36
	c0,79.021,64.288,143.309,143.309,143.309c74.213,0,135.427-56.704,142.602-129.061c2.856,4.195,7.553,6.552,12.396,6.552
	c2.421,0,4.877-0.588,7.153-1.826C312.737,184.375,315.428,175.267,311.47,167.989z"/>
</svg>